# xmcd CD database file
#
# Track frame offsets:
#	150
#	22663
#	37708
#	60268
#	79563
#	90205
#	102031
#	121484
#	141144
#	162337
#	185783
#	197090
#	211189
#
# Disc length: 3089 seconds
#
# Revision: 0
# Processed by: cddbd v1.5.2PL0 Copyright (c) Steve Scherf et al.
# Submitted via: CDex 1.70beta2
#
DISCID=940c0f0d
DTITLE=Tingelmann - The First
DYEAR=2007
DGENRE=Country
TTITLE0=Talk to night
TTITLE1=Knocking on Heaven's Door
TTITLE2=Father and Son
TTITLE3=Breakfast at Tiffanys
TTITLE4=Norwegian Wood
TTITLE5=Talking about Revolution
TTITLE6=Wish you were here
TTITLE7=Thank you
TTITLE8=One
TTITLE9=Everybody Hurts
TTITLE10=Fare gone
TTITLE11=Dream of you
TTITLE12=Bonustrack
EXTD=YEAR: 2007
EXTT0=
EXTT1=
EXTT2=
EXTT3=
EXTT4=
EXTT5=
EXTT6=
EXTT7=
EXTT8=
EXTT9=
EXTT10=
EXTT11=
EXTT12=
PLAYORDER=
